<svg width="140" height="140" viewBox="0 0 140 140" fill="none" xmlns="http://www.w3.org/2000/svg">
<path d="M94.5412 75.4682C94.5412 69.6804 90.518 64.8277 85.1223 63.5376C82.4836 56.7793 75.9637 52.2817 68.6392 52.2817C58.8654 52.2817 50.9138 60.2354 50.9138 70.0118C50.9138 70.793 50.9847 71.586 51.0912 72.379C48.5472 73.7756 46.8315 76.4624 46.8315 79.5634C46.8315 84.0729 50.4996 87.742 55.0079 87.742H82.2706C89.0389 87.742 94.5412 82.2383 94.5412 75.4682ZM82.2706 85.0079H55.0079C52.0024 85.0079 49.553 82.5579 49.553 79.5516C49.553 76.5452 52.0024 74.0952 55.0079 74.0952C58.0134 74.0952 60.4628 76.5452 60.4628 79.5516C60.4628 80.309 61.0781 80.9127 61.8236 80.9127C62.569 80.9127 63.1843 80.2972 63.1843 79.5516C63.1843 75.0421 59.5162 71.373 55.0079 71.373C54.5701 71.373 54.1323 71.4203 53.7181 71.4795C53.6708 70.9824 53.6471 70.4853 53.6471 70C53.6471 61.7267 60.38 55.0039 68.6392 55.0039C74.3426 55.0039 79.478 58.2233 81.9984 63.2062C75.3602 63.3601 70 68.7927 70 75.4682C70 76.2257 70.6153 76.8293 71.3608 76.8293C72.1062 76.8293 72.7215 76.2138 72.7215 75.4682C72.7215 70.2012 77.005 65.9166 82.2706 65.9166C87.5362 65.9166 91.8196 70.2012 91.8196 75.4682C91.8196 80.7351 87.5362 85.0197 82.2706 85.0197V85.0079ZM30.4549 31.8175H31.8157C32.573 31.8175 33.1764 31.202 33.1764 30.4563C33.1764 29.7107 32.5611 29.0952 31.8157 29.0952H30.4549C29.6976 29.0952 29.0941 29.7107 29.0941 30.4563C29.0941 31.202 29.7094 31.8175 30.4549 31.8175ZM29.0941 44.0913H48.1804C50.4404 44.0913 52.2745 42.2567 52.2745 39.9961V37.2738C52.2745 36.2204 51.8604 35.2735 51.2096 34.5516C51.8604 33.8296 52.2745 32.8709 52.2745 31.8293V29.107C52.2745 26.8464 50.4404 25.0118 48.1804 25.0118H29.0941C26.8341 25 25 26.8346 25 29.0952V31.8175C25 32.8709 25.4141 33.8177 26.0649 34.5397C25.4141 35.2617 25 36.2204 25 37.262V39.9842C25 42.2449 26.8341 44.0794 29.0941 44.0794V44.0913ZM49.5412 40.0079C49.5412 40.7654 48.9258 41.369 48.1804 41.369H29.0941C28.3368 41.369 27.7334 40.7536 27.7334 39.9961V37.2738C27.7334 36.5163 28.3487 35.9127 29.0941 35.9127H48.1804C48.9377 35.9127 49.5412 36.5281 49.5412 37.2738V40.0079ZM27.7334 29.0952C27.7334 28.3377 28.3487 27.7341 29.0941 27.7341H48.1804C48.9377 27.7341 49.5412 28.3496 49.5412 29.0952V31.8175C49.5412 32.575 48.9258 33.1786 48.1804 33.1786H29.0941C28.3368 33.1786 27.7334 32.5631 27.7334 31.8175V29.0952ZM31.8157 37.2738H30.4549C29.6976 37.2738 29.0941 37.8893 29.0941 38.6349C29.0941 39.3806 29.7094 39.9961 30.4549 39.9961H31.8157C32.573 39.9961 33.1764 39.3806 33.1764 38.6349C33.1764 37.8893 32.5611 37.2738 31.8157 37.2738ZM114.988 29.0952C114.988 26.8346 113.154 25 110.894 25H91.8078C89.5477 25 87.7136 26.8346 87.7136 29.0952V31.8175C87.7136 32.8709 88.1278 33.8177 88.7786 34.5397C88.1278 35.2617 87.7136 36.2204 87.7136 37.262V39.9842C87.7136 42.2449 89.5477 44.0794 91.8078 44.0794H110.894C113.154 44.0794 114.988 42.2449 114.988 39.9842V37.262C114.988 36.2086 114.574 35.2617 113.923 34.5397C114.574 33.8177 114.988 32.859 114.988 31.8175V29.0952ZM90.447 29.0952C90.447 28.3377 91.0623 27.7341 91.8078 27.7341H110.894C111.651 27.7341 112.255 28.3496 112.255 29.0952V31.8175C112.255 32.575 111.639 33.1786 110.894 33.1786H91.8078C91.0505 33.1786 90.447 32.5631 90.447 31.8175V29.0952ZM112.267 40.0079C112.267 40.7654 111.651 41.369 110.906 41.369H91.8196C91.0623 41.369 90.4589 40.7536 90.4589 40.0079V37.2856C90.4589 36.5281 91.0742 35.9245 91.8196 35.9245H110.906C111.663 35.9245 112.267 36.54 112.267 37.2856V40.0079ZM93.1686 31.8175H94.5293C95.2866 31.8175 95.8901 31.202 95.8901 30.4563C95.8901 29.7107 95.2748 29.0952 94.5293 29.0952H93.1686C92.4113 29.0952 91.8078 29.7107 91.8078 30.4563C91.8078 31.202 92.4231 31.8175 93.1686 31.8175ZM94.5412 37.2738H93.1804C92.4231 37.2738 91.8196 37.8893 91.8196 38.6349C91.8196 39.3806 92.4349 39.9961 93.1804 39.9961H94.5412C95.2985 39.9961 95.9019 39.3806 95.9019 38.6349C95.9019 37.8893 95.2866 37.2738 94.5412 37.2738ZM48.1804 95.9206H29.0941C26.8341 95.9206 25 97.7551 25 100.016V102.738C25 103.791 25.4141 104.738 26.0649 105.46C25.4141 106.182 25 107.141 25 108.183V110.905C25 113.165 26.8341 115 29.0941 115H48.1804C50.4404 115 52.2745 113.165 52.2745 110.905V108.183C52.2745 107.129 51.8604 106.182 51.2096 105.46C51.8604 104.738 52.2745 103.78 52.2745 102.738V100.016C52.2745 97.7551 50.4404 95.9206 48.1804 95.9206ZM27.7334 100.016C27.7334 99.2583 28.3487 98.6547 29.0941 98.6547H48.1804C48.9377 98.6547 49.5412 99.2701 49.5412 100.016V102.738C49.5412 103.496 48.9258 104.099 48.1804 104.099H29.0941C28.3368 104.099 27.7334 103.484 27.7334 102.738V100.016ZM49.5412 110.928C49.5412 111.686 48.9258 112.29 48.1804 112.29H29.0941C28.3368 112.29 27.7334 111.674 27.7334 110.917V108.194C27.7334 107.437 28.3487 106.833 29.0941 106.833H48.1804C48.9377 106.833 49.5412 107.449 49.5412 108.194V110.928ZM30.4549 102.738H31.8157C32.573 102.738 33.1764 102.123 33.1764 101.377C33.1764 100.631 32.5611 100.016 31.8157 100.016H30.4549C29.6976 100.016 29.0941 100.631 29.0941 101.377C29.0941 102.123 29.7094 102.738 30.4549 102.738ZM31.8157 108.194H30.4549C29.6976 108.194 29.0941 108.81 29.0941 109.555C29.0941 110.301 29.7094 110.917 30.4549 110.917H31.8157C32.573 110.917 33.1764 110.301 33.1764 109.555C33.1764 108.81 32.5611 108.194 31.8157 108.194ZM110.906 95.9206H91.8196C89.5596 95.9206 87.7255 97.7551 87.7255 100.016V102.738C87.7255 103.791 88.1396 104.738 88.7904 105.46C88.1396 106.182 87.7255 107.141 87.7255 108.183V110.905C87.7255 113.165 89.5596 115 91.8196 115H110.906C113.166 115 115 113.165 115 110.905V108.183C115 107.129 114.586 106.182 113.935 105.46C114.586 104.738 115 103.78 115 102.738V100.016C115 97.7551 113.166 95.9206 110.906 95.9206ZM90.447 100.016C90.447 99.2583 91.0623 98.6547 91.8078 98.6547H110.894C111.651 98.6547 112.255 99.2701 112.255 100.016V102.738C112.255 103.496 111.639 104.099 110.894 104.099H91.8078C91.0505 104.099 90.447 103.484 90.447 102.738V100.016ZM112.267 110.928C112.267 111.686 111.651 112.29 110.906 112.29H91.8196C91.0623 112.29 90.4589 111.674 90.4589 110.928V108.206C90.4589 107.449 91.0742 106.845 91.8196 106.845H110.906C111.663 106.845 112.267 107.461 112.267 108.206V110.928ZM93.1686 102.738H94.5293C95.2866 102.738 95.8901 102.123 95.8901 101.377C95.8901 100.631 95.2748 100.016 94.5293 100.016H93.1686C92.4113 100.016 91.8078 100.631 91.8078 101.377C91.8078 102.123 92.4231 102.738 93.1686 102.738ZM94.5412 108.194H93.1804C92.4231 108.194 91.8196 108.81 91.8196 109.555C91.8196 110.301 92.4349 110.917 93.1804 110.917H94.5412C95.2985 110.917 95.9019 110.301 95.9019 109.555C95.9019 108.81 95.2866 108.194 94.5412 108.194ZM31.863 93.9203C32.1233 94.3346 32.5611 94.5594 33.0226 94.5594C33.2711 94.5594 33.5196 94.4884 33.7444 94.3464C34.3834 93.944 34.5727 93.1036 34.1704 92.4645C33.9337 92.0976 33.7089 91.7188 33.4841 91.3282C33.1054 90.6773 32.2653 90.4524 31.6263 90.843C30.9755 91.2217 30.7626 92.0621 31.1412 92.7012C31.3779 93.1036 31.6263 93.5061 31.8748 93.8966L31.863 93.9203ZM28.6208 87.7183C28.8456 88.2391 29.3426 88.5468 29.8751 88.5468C30.0526 88.5468 30.2301 88.5113 30.4076 88.4403C31.1057 88.1444 31.4252 87.3396 31.1294 86.6531C30.7862 85.8482 30.4667 85.0316 30.1709 84.203C29.9224 83.4929 29.1415 83.126 28.4315 83.3745C27.7215 83.6231 27.3547 84.4043 27.6032 85.1144C27.9227 86.0021 28.254 86.8661 28.6208 87.7183ZM26.6803 75.4327C25.9348 75.551 25.426 76.2493 25.5443 76.995C25.6863 77.9182 25.8638 78.8414 26.0649 79.7409C26.2069 80.3801 26.7749 80.8062 27.3902 80.8062C27.4849 80.8062 27.5914 80.8062 27.686 80.7706C28.4197 80.6049 28.8811 79.883 28.7273 79.1491C28.538 78.2969 28.3842 77.4329 28.2422 76.5689C28.1238 75.8232 27.4257 75.3143 26.6803 75.4327ZM28.4197 56.661C28.5735 56.7201 28.7273 56.7438 28.8811 56.7438C29.4373 56.7438 29.9698 56.4006 30.1709 55.8443C30.4667 55.0158 30.7862 54.1991 31.1294 53.3943C31.4252 52.6959 31.1057 51.9029 30.4076 51.607C29.7094 51.3112 28.9166 51.6307 28.6208 52.329C28.254 53.1812 27.9109 54.0571 27.6032 54.9329C27.3547 55.6431 27.7215 56.4242 28.4315 56.6728L28.4197 56.661ZM26.3844 72.7341H26.4318C27.1891 72.7104 27.7807 72.0831 27.7452 71.3256C27.7452 70.8877 27.7215 70.4379 27.7215 70C27.7215 69.5621 27.7215 69.1241 27.7452 68.6862C27.7689 67.9287 27.1772 67.3014 26.4318 67.2777C25.6863 67.2659 25.0473 67.8459 25.0237 68.5915C25.0118 69.0531 25 69.5147 25 69.9882C25 70.4616 25 70.9232 25.0237 71.3966C25.0473 72.1423 25.6508 72.7222 26.3844 72.7222V72.7341ZM26.0531 60.2946C25.852 61.2059 25.6863 62.1173 25.5443 63.0523C25.426 63.798 25.9348 64.4963 26.6803 64.6147C26.7512 64.6147 26.8222 64.6265 26.8932 64.6265C27.5559 64.6265 28.1357 64.1412 28.2422 63.4666C28.3723 62.5907 28.538 61.7386 28.7273 60.8864C28.893 60.1525 28.4197 59.4187 27.686 59.2649C26.9406 59.0992 26.2188 59.5726 26.0649 60.3064L26.0531 60.2946ZM33.7444 45.6654C33.1054 45.263 32.2653 45.4524 31.863 46.0915C31.6145 46.4821 31.3779 46.8845 31.1294 47.287C30.7507 47.9379 30.9637 48.7664 31.6145 49.1452C31.8275 49.2754 32.0642 49.3346 32.3008 49.3346C32.7741 49.3346 33.2238 49.0978 33.4723 48.6599C33.6971 48.2812 33.9219 47.9024 34.1586 47.5237C34.5609 46.8845 34.3715 46.0442 33.7326 45.6418L33.7444 45.6654ZM84.5306 109.721C84.1165 109.875 83.7023 110.017 83.2882 110.159C82.5782 110.396 82.1877 111.165 82.4244 111.887C82.6137 112.455 83.1462 112.822 83.726 112.822C83.868 112.822 84.01 112.799 84.152 112.751C84.6016 112.597 85.0394 112.443 85.4773 112.29C86.1872 112.029 86.5422 111.248 86.2819 110.538C86.0216 109.828 85.2406 109.461 84.5306 109.733V109.721ZM78.5433 111.426C77.7505 111.591 76.9458 111.733 76.1294 111.852C75.3839 111.958 74.8633 112.656 74.9698 113.402C75.0644 114.077 75.6442 114.574 76.3187 114.574C76.3897 114.574 76.4489 114.574 76.5199 114.562C77.3836 114.432 78.2474 114.29 79.0876 114.112C79.8212 113.958 80.2945 113.236 80.1525 112.503C79.9987 111.757 79.2769 111.284 78.5433 111.437V111.426ZM63.8825 111.852C63.066 111.733 62.2614 111.591 61.4686 111.426C60.7349 111.272 60.0131 111.757 59.8593 112.491C59.7055 113.225 60.1906 113.947 60.9243 114.1C61.7762 114.278 62.64 114.432 63.5038 114.55C63.5748 114.55 63.634 114.562 63.705 114.562C64.3676 114.562 64.9592 114.077 65.0539 113.39C65.1604 112.645 64.6398 111.946 63.8943 111.84L63.8825 111.852ZM71.2306 112.266C70.8401 112.266 70.4496 112.278 70.0592 112.278C69.6332 112.278 69.1954 112.278 68.7694 112.254C68.0713 112.219 67.385 112.822 67.3731 113.58C67.3495 114.337 67.9411 114.964 68.6984 114.976C69.148 114.976 69.6095 115 70.0592 115C70.4733 115 70.8875 115 71.3016 114.976C72.0589 114.953 72.6505 114.325 72.6269 113.58C72.6032 112.822 71.9997 112.23 71.2188 112.254L71.2306 112.266ZM56.7118 110.159C56.2977 110.017 55.8835 109.875 55.4694 109.721C54.7594 109.461 53.9784 109.828 53.7181 110.526C53.4578 111.236 53.8246 112.017 54.5227 112.278C54.9606 112.443 55.4102 112.597 55.848 112.739C55.99 112.787 56.132 112.81 56.274 112.81C56.842 112.81 57.3744 112.443 57.5756 111.875C57.8123 111.165 57.4218 110.384 56.7118 110.147V110.159ZM108.125 46.1034C107.723 45.4642 106.883 45.2749 106.244 45.6773C105.605 46.0797 105.415 46.92 105.818 47.5592C106.054 47.9261 106.279 48.3048 106.504 48.6836C106.753 49.1215 107.214 49.3582 107.676 49.3582C107.912 49.3582 108.149 49.2991 108.362 49.1689C109.013 48.7901 109.237 47.9498 108.847 47.3106C108.61 46.9082 108.362 46.5058 108.113 46.1152L108.125 46.1034ZM113.568 67.2777C112.811 67.3014 112.219 67.9287 112.243 68.6862C112.243 69.1241 112.267 69.5739 112.267 70.0118C112.267 70.4498 112.267 70.8877 112.243 71.3256C112.219 72.0831 112.811 72.7104 113.568 72.7341H113.616C114.349 72.7341 114.953 72.1541 114.976 71.4085C114.976 70.9469 115 70.4853 115 70.0237C115 69.5621 115 69.0886 114.976 68.6152C114.953 67.8577 114.266 67.2541 113.568 67.2896V67.2777ZM111.379 52.2935C111.083 51.5952 110.279 51.2756 109.592 51.5715C108.894 51.8674 108.575 52.6723 108.871 53.3588C109.214 54.1636 109.533 54.9803 109.829 55.8088C110.03 56.3651 110.551 56.7201 111.119 56.7201C111.273 56.7201 111.427 56.6965 111.58 56.6373C112.29 56.3887 112.657 55.6076 112.409 54.8974C112.089 54.0097 111.758 53.1457 111.391 52.2935H111.379ZM111.569 83.3627C110.859 83.1142 110.078 83.4811 109.829 84.1912C109.533 85.0197 109.214 85.8364 108.871 86.6412C108.575 87.3396 108.894 88.1326 109.592 88.4285C109.77 88.4995 109.947 88.535 110.125 88.535C110.657 88.535 111.154 88.2272 111.379 87.7065C111.746 86.8543 112.089 85.9784 112.397 85.1026C112.645 84.3924 112.278 83.6113 111.569 83.3627ZM113.32 64.591C114.065 64.4726 114.574 63.7743 114.456 63.0287C114.314 62.1055 114.136 61.1823 113.947 60.2827C113.781 59.5489 113.048 59.0755 112.326 59.2412C111.592 59.4069 111.131 60.1289 111.285 60.8627C111.474 61.7149 111.628 62.5789 111.77 63.4429C111.876 64.1176 112.456 64.6028 113.119 64.6028C113.19 64.6028 113.261 64.6028 113.332 64.591H113.32ZM113.947 79.7173C114.148 78.8177 114.314 77.8945 114.456 76.9713C114.574 76.2257 114.065 75.5274 113.32 75.409C112.574 75.3025 111.876 75.7996 111.758 76.5452C111.628 77.4211 111.462 78.2733 111.273 79.1255C111.107 79.8593 111.58 80.5813 112.314 80.747C112.409 80.7706 112.515 80.7825 112.61 80.7825C113.237 80.7825 113.793 80.3446 113.935 79.7173H113.947ZM106.256 94.3464C106.48 94.4884 106.729 94.5594 106.977 94.5594C107.427 94.5594 107.877 94.3346 108.137 93.9203C108.385 93.5297 108.622 93.1273 108.871 92.7249C109.249 92.0739 109.036 91.2454 108.385 90.8666C107.735 90.4879 106.906 90.7009 106.528 91.3519C106.303 91.7307 106.078 92.1094 105.841 92.4763C105.439 93.1155 105.628 93.9558 106.267 94.3582L106.256 94.3464ZM54.9961 30.3735C55.1499 30.3735 55.3155 30.3498 55.4694 30.2906C55.8835 30.1368 56.2977 29.9947 56.7118 29.8527C57.4218 29.616 57.8123 28.8467 57.5756 28.1247C57.3389 27.4145 56.5698 27.0239 55.848 27.2607C55.3984 27.4145 54.9606 27.5684 54.5227 27.7223C53.8128 27.9826 53.4578 28.7638 53.7181 29.474C53.9193 30.0302 54.4399 30.3735 54.9961 30.3735ZM76.1175 28.172C76.934 28.2904 77.7386 28.4324 78.5314 28.5981C78.6261 28.6218 78.7207 28.6218 78.8036 28.6218C79.4307 28.6218 80.0105 28.172 80.1407 27.5329C80.2945 26.7991 79.8212 26.0771 79.0757 25.9232C78.2238 25.7457 77.36 25.5918 76.4962 25.4734C75.7507 25.3669 75.0526 25.8877 74.9461 26.6334C74.8396 27.379 75.3602 28.0773 76.1057 28.1839L76.1175 28.172ZM68.7694 27.7459C69.1599 27.7459 69.5504 27.7341 69.9408 27.7341C70.3668 27.7341 70.8046 27.7341 71.2306 27.7578H71.2661C71.9997 27.7578 72.6032 27.166 72.6269 26.4321C72.6505 25.6746 72.0589 25.0473 71.3016 25.0355C70.8638 25.0355 70.4378 25.0118 70 25.0118C69.5622 25.0118 69.1244 25.0118 68.6866 25.0355C67.9293 25.0592 67.3376 25.6865 67.3613 26.4321C67.385 27.1896 68.0239 27.7814 68.7576 27.7578L68.7694 27.7459ZM61.1846 28.6218C61.2793 28.6218 61.3739 28.6218 61.4567 28.5981C62.2495 28.4324 63.066 28.2904 63.8706 28.172C64.6161 28.0655 65.1367 27.3672 65.0302 26.6215C64.9237 25.8759 64.2374 25.3669 63.4801 25.4616C62.6164 25.5918 61.7526 25.7338 60.9124 25.9114C60.1788 26.0652 59.7055 26.7872 59.8475 27.521C59.9777 28.1602 60.5456 28.6099 61.1846 28.6099V28.6218ZM83.2764 29.8527C83.6905 29.9947 84.1047 30.1368 84.5188 30.2906C84.6726 30.3498 84.8383 30.3735 84.9921 30.3735C85.5483 30.3735 86.0689 30.0302 86.2701 29.474C86.5304 28.7638 86.1636 27.9826 85.4654 27.7223C85.0276 27.5565 84.578 27.4027 84.1402 27.2607C83.4302 27.0239 82.6611 27.4145 82.4126 28.1247C82.1759 28.8348 82.5664 29.616 83.2764 29.8527Z" fill="url(#paint0_linear_61_163)"/>
<defs>
<linearGradient id="paint0_linear_61_163" x1="27.5658" y1="25" x2="117.502" y2="32.6938" gradientUnits="userSpaceOnUse">
<stop stop-color="#FFA163"/>
<stop offset="1" stop-color="#FFC441"/>
</linearGradient>
</defs>
</svg>
