<svg width="105" height="88" viewBox="0 0 105 88" fill="none" xmlns="http://www.w3.org/2000/svg">
<path fill-rule="evenodd" clip-rule="evenodd" d="M32.13 0.121338C24.5521 0.121338 17.943 2.51327 12.9343 6.97805C7.94697 11.4238 4.88128 17.624 3.8097 24.6814C3.38998 27.4457 5.29058 30.0268 8.05484 30.4465C10.8191 30.8662 13.4002 28.9656 13.82 26.2014C14.5929 21.1106 16.7032 17.1821 19.6716 14.5361C22.6186 11.9091 26.7448 10.2463 32.13 10.2463C38.6452 10.2463 46.2624 14.4906 49.1906 23.4002C49.8734 25.4778 51.8131 26.8821 54 26.8821C56.1869 26.8821 58.1266 25.4778 58.8094 23.4002C61.7408 14.4811 69.283 10.2463 75.87 10.2463C81.9429 10.2463 86.4526 12.3613 89.4801 15.6749C92.5547 19.0399 94.5 24.0871 94.5 30.5873C94.5 41.4378 88.9819 50.7398 80.5857 58.8154C72.8431 66.2622 63.0267 72.292 54.0103 77.0871C44.9754 72.249 35.1963 66.2901 27.4711 58.9166C25.4485 56.9862 22.244 57.0608 20.3136 59.0834C18.3831 61.1059 18.4578 64.3104 20.4803 66.2409C29.9445 75.2741 41.8115 82.1484 51.6542 87.2951C53.1168 88.0598 54.8604 88.0636 56.3263 87.3052C66.203 82.1953 78.1162 75.2386 87.6044 66.1128C97.1136 56.9669 104.625 45.2033 104.625 30.5873C104.625 22.0862 102.059 14.4317 96.9549 8.8453C91.8037 3.20744 84.4672 0.121338 75.87 0.121338C67.947 0.121338 59.59 3.83836 53.9938 11.0929C48.3755 3.83457 39.9863 0.121338 32.13 0.121338ZM37.8695 29.2452C37.0347 28.0765 35.7428 27.3174 34.3156 27.1569C32.8883 26.9965 31.4601 27.4498 30.3867 28.404L16.6377 40.6253H5.0625C2.26656 40.6253 0 42.8918 0 45.6878C0 48.4837 2.26656 50.7503 5.0625 50.7503H18.5625C19.8024 50.7503 20.9992 50.2952 21.9258 49.4715L32.904 39.7132L46.5055 58.7553C47.4437 60.0688 48.9521 60.8561 50.5662 60.8749C52.1802 60.8937 53.7065 60.1416 54.675 58.8503L63.2812 47.3753H74.25C77.0459 47.3753 79.3125 45.1087 79.3125 42.3128C79.3125 39.5168 77.0459 37.2503 74.25 37.2503H60.75C59.1565 37.2503 57.6561 38.0005 56.7 39.2753L50.7246 47.2424L37.8695 29.2452Z" fill="#FFCDA5"/>
</svg>
