<svg width="1920" height="652" viewBox="0 0 1920 652" fill="none" xmlns="http://www.w3.org/2000/svg">
<path d="M1384 -2L1049 248L665 308L533 624L206.5 454.5L0 522" stroke="white" stroke-opacity="0.6" stroke-width="2"/>
<path d="M1049.5 248L1052 572.5L665 308M665 308L305.5 172L251 -1L-4 195.5L206 455L665 308Z" stroke="white" stroke-opacity="0.6" stroke-width="2"/>
<path d="M206.5 454.5L305.5 172L745 2.5L1050 249L1335.5 511.5M1335.5 511.5L1662 322L1386.5 2.5L1335.5 511.5Z" stroke="white" stroke-opacity="0.6" stroke-width="2"/>
<path d="M1918 262.5L1778.5 633L1052 572.5L722.5 495.5L533.5 624L772.5 649.5" stroke="white" stroke-opacity="0.6" stroke-width="2"/>
<path d="M747 6.5L664.5 308L771 650L1052 572.5L1335.5 511.5L1777.5 630.5L1662 322M1662 322L1815.5 -2L1922 259L1662 322Z" stroke="white" stroke-opacity="0.6" stroke-width="2"/>
</svg>
