<svg width="140" height="140" viewBox="0 0 140 140" fill="none" xmlns="http://www.w3.org/2000/svg">
<path d="M59.9663 69.0218H30.4505C27.4527 69.0218 25 71.4696 25 74.4877V97.6343C25 100.641 27.4409 103.1 30.4505 103.1H38.1879V109.624H33.9223C33.2706 109.624 32.7374 110.158 32.7374 110.812C32.7374 111.465 33.2706 112 33.9223 112H56.5182C57.1699 112 57.7031 111.465 57.7031 110.812C57.7031 110.158 57.1699 109.624 56.5182 109.624H52.2526V103.1H59.99C62.9878 103.1 65.4405 100.652 65.4405 97.6343V74.4877C65.4405 71.4814 62.9996 69.0218 59.99 69.0218H59.9663ZM30.4505 71.3983H59.9663C61.6607 71.3983 63.047 72.7766 63.047 74.4877V92.3111H27.3698V74.4877C27.3698 72.7885 28.7443 71.3983 30.4505 71.3983ZM49.8591 109.624H40.5458V103.1H49.8591V109.624ZM59.9663 100.724H30.4505C28.7561 100.724 27.3698 99.3454 27.3698 97.6343V94.6875H63.047V97.6343C63.047 99.3335 61.6725 100.724 59.9663 100.724ZM110.526 69.0218H81.01C78.0122 69.0218 75.5595 71.4696 75.5595 74.4877V97.6343C75.5595 100.641 78.0004 103.1 81.01 103.1H88.7474V109.624H84.4818C83.8301 109.624 83.2969 110.158 83.2969 110.812C83.2969 111.465 83.8301 112 84.4818 112H107.078C107.729 112 108.263 111.465 108.263 110.812C108.263 110.158 107.729 109.624 107.078 109.624H102.812V103.1H110.549C113.547 103.1 116 100.652 116 97.6343V74.4877C116 71.4814 113.559 69.0218 110.549 69.0218H110.526ZM81.01 71.3983H110.526C112.22 71.3983 113.607 72.7766 113.607 74.4877V92.3111H77.9293V74.4877C77.9293 72.7885 79.3038 71.3983 81.01 71.3983ZM100.43 109.624H91.1172V103.1H100.43V109.624ZM110.526 100.724H81.01C79.3156 100.724 77.9293 99.3454 77.9293 97.6343V94.6875H113.607V97.6343C113.607 99.3335 112.232 100.724 110.526 100.724ZM36.7068 56.3553V44.8652H50.3094C50.9611 44.8652 51.4943 45.3999 51.4943 46.0534C51.4943 46.7069 50.9611 47.2416 50.3094 47.2416H39.0766V56.3553C39.0766 57.0088 38.5434 57.5435 37.8917 57.5435C37.24 57.5435 36.7068 57.0088 36.7068 56.3553ZM89.4702 46.0534C89.4702 45.3999 90.0034 44.8652 90.6551 44.8652H104.258V56.3553C104.258 57.0088 103.724 57.5435 103.073 57.5435C102.421 57.5435 101.888 57.0088 101.888 56.3553V47.2416H90.6551C90.0034 47.2416 89.4702 46.7069 89.4702 46.0534ZM86.3658 45.5306C86.2947 41.6213 86.7805 37.7596 87.8232 34.0166C88.2734 32.4601 87.444 30.7847 85.9273 30.2143C74.576 25.901 64.1134 25.9248 54.8357 30.3094C53.4375 30.9629 52.7266 32.5314 53.1531 34.0048C54.1958 37.7477 54.6816 41.6213 54.6105 45.5306C54.5987 51.2222 57.324 56.6286 61.9214 59.9913L68.6516 64.8987C69.1966 65.3027 69.8483 65.5047 70.4881 65.5047C71.128 65.5047 71.7797 65.3027 72.3247 64.8987L79.0549 59.9913C83.6523 56.6286 86.3776 51.2341 86.3539 45.5306H86.3658ZM70.9384 62.9737C70.6777 63.1639 70.3223 63.1757 70.0497 62.9737L63.3195 58.0664C59.3383 55.1552 56.9685 50.4736 56.9922 45.5543C57.0751 41.4431 56.5538 37.3318 55.4518 33.3631C55.3452 33.0066 55.5229 32.6264 55.8547 32.4601C60.2033 30.4044 64.8362 29.3825 69.7417 29.3825C74.6471 29.3825 79.754 30.4044 85.0979 32.4363C85.4652 32.5789 85.6667 32.9829 85.56 33.375C84.4581 37.3437 83.9486 41.4312 84.0197 45.5543C84.0315 50.4855 81.6736 55.1671 77.6923 58.0782L70.9621 62.9856L70.9384 62.9737ZM78.9365 42.0609L70.2749 51.9826C70.0616 52.2322 69.7535 52.3748 69.4217 52.3866C69.4099 52.3866 69.398 52.3866 69.3862 52.3866C69.0781 52.3866 68.7701 52.2678 68.5449 52.042L63.4262 46.9089C62.9641 46.4455 62.9641 45.6969 63.4262 45.2335C63.8883 44.7701 64.6348 44.7701 65.0969 45.2335L69.327 49.4636L77.1591 40.4925C77.5857 39.9934 78.344 39.9459 78.8298 40.3855C79.3275 40.8133 79.3749 41.5738 78.9365 42.0609Z" fill="url(#paint0_linear_61_169)"/>
<defs>
<linearGradient id="paint0_linear_61_169" x1="27.5943" y1="27" x2="118.433" y2="35.3195" gradientUnits="userSpaceOnUse">
<stop stop-color="#FFA163"/>
<stop offset="1" stop-color="#FFC441"/>
</linearGradient>
</defs>
</svg>
