<svg width="120" height="131" viewBox="0 0 120 131" fill="none" xmlns="http://www.w3.org/2000/svg">
<rect x="30.8261" y="50.6752" width="52.8696" height="52.7863" rx="14" stroke="#F9DB95" stroke-width="8"/>
<path d="M84.6262 87.3248H86.913C95.7496 87.3248 102.913 80.1613 102.913 71.3248V49.0513C102.913 40.2147 95.7495 33.0513 86.913 33.0513H67.8261C58.9895 33.0513 51.826 40.2147 51.826 49.0513V54.3289" stroke="#F9DB95" stroke-width="8"/>
<path d="M67.0435 29.7949V7" stroke="#F9DB95" stroke-width="8" stroke-linecap="round"/>
<path d="M26.8261 86.8376L4 86.8376" stroke="#F9DB95" stroke-width="8" stroke-linecap="round"/>
<path d="M129 69.9573L106.174 69.9573" stroke="#F9DB95" stroke-width="8" stroke-linecap="round"/>
<path d="M67.0435 104.205L67.0435 127" stroke="#F9DB95" stroke-width="8" stroke-linecap="round"/>
<path d="M87.6957 29.7949V7" stroke="#F9DB95" stroke-width="8" stroke-linecap="round"/>
<path d="M26.8261 66.2137L4 66.2137" stroke="#F9DB95" stroke-width="8" stroke-linecap="round"/>
<path d="M129 50.4188L106.174 50.4188" stroke="#F9DB95" stroke-width="8" stroke-linecap="round"/>
<path d="M46.3914 104.205L46.3914 127" stroke="#F9DB95" stroke-width="8" stroke-linecap="round"/>
</svg>
