<svg width="140" height="140" viewBox="0 0 140 140" fill="none" xmlns="http://www.w3.org/2000/svg">
<path d="M39.2942 26.9964C38.4632 26.9964 37.8047 26.3183 37.8047 25.4982C37.8047 24.6781 38.4789 24 39.2942 24H81.3769C81.7689 24 82.1295 24.1577 82.3961 24.41L107.498 46.6783C107.828 46.978 108 47.388 108 47.798V109.193C108 110.029 107.326 110.692 106.51 110.692C105.695 110.692 105.021 110.014 105.021 109.193V48.4762L80.8125 26.9964H39.2942ZM75.5129 68.3315C76.9397 68.9939 78.2254 69.9086 79.3229 71.0125C80.4205 72.1165 81.3299 73.3939 81.9884 74.8133H89.4673V67.8111C89.4673 66.9752 90.1415 66.3129 90.9568 66.3129C91.7721 66.3129 92.4464 66.991 92.4464 67.8111V99.3368C92.4464 101.624 91.5213 103.69 90.0161 105.203C88.5109 106.717 86.4569 107.648 84.1835 107.648H49.3132C47.0397 107.648 44.9857 106.717 43.4806 105.203C41.991 103.69 41.0503 101.608 41.0503 99.3368V61.7551C41.0503 59.4684 41.9754 57.4024 43.4806 55.8884C44.9857 54.3744 47.0397 53.444 49.3132 53.444H84.1835C86.3785 53.444 88.3855 54.3271 89.875 55.7465C91.3645 57.1658 92.3366 59.1687 92.4307 61.3609C92.462 62.1809 91.8349 62.8906 91.0196 62.9222C90.2042 62.9537 89.4987 62.3229 89.4673 61.5028C89.4046 60.0992 88.7774 58.8375 87.821 57.9228C86.8803 57.0239 85.5946 56.4562 84.1835 56.4562H75.5129V68.3473V68.3315ZM89.4673 77.8097H81.0163C80.4205 77.8097 79.856 77.4312 79.6208 76.8477C79.0878 75.4441 78.2724 74.1825 77.222 73.1416C76.7045 72.6212 76.1244 72.148 75.4972 71.738C75.4032 72.7946 74.8858 73.7409 74.1018 74.4348C73.2865 75.1603 72.1733 75.6176 70.966 75.6176H62.515C61.3077 75.6176 60.1945 75.176 59.3791 74.4506L59.2694 74.3402C58.5482 73.6463 58.0778 72.7473 57.9837 71.738C57.3565 72.148 56.7764 72.6212 56.259 73.1416C55.2399 74.1667 54.4402 75.3968 53.9071 76.7531C53.719 77.3682 53.1546 77.8097 52.4804 77.8097H44.0293V82.3044H52.1511C52.8096 82.3044 53.4054 82.746 53.5779 83.4083C54.0326 85.0012 54.8479 86.4521 55.9454 87.6507C56.5569 88.313 57.2468 88.9123 57.9994 89.4012V88.7546C57.9994 87.5718 58.5325 86.4994 59.3948 85.7424C60.2101 85.017 61.3077 84.5754 62.515 84.5754H70.9346C72.1419 84.5754 73.2551 85.017 74.0548 85.7424C74.9171 86.5152 75.4502 87.5718 75.4502 88.7704V89.417C76.2028 88.9281 76.8927 88.3446 77.5042 87.6822C78.5704 86.5152 79.3857 85.0958 79.8404 83.5345C79.9815 82.8564 80.5773 82.3517 81.2985 82.3517H89.436V77.857L89.4673 77.8097ZM44.0293 74.8133H51.5082C52.1824 73.3939 53.0762 72.1165 54.1737 71.0125C55.2712 69.9086 56.5569 68.9939 57.9837 68.3315V56.4562H49.3132C47.855 56.4562 46.538 57.0555 45.5816 58.0175C44.6251 58.9795 44.0293 60.3042 44.0293 61.7709V74.8291V74.8133ZM89.4673 85.3008H82.4117C81.8002 86.9252 80.8752 88.4077 79.7306 89.6536C78.539 90.9468 77.0965 92.0192 75.4816 92.7762V104.652H84.1835C85.6416 104.652 86.9587 104.052 87.9151 103.09C88.8715 102.128 89.4673 100.803 89.4673 99.3368V85.3008ZM58.0151 92.7919C56.4001 92.0349 54.9576 90.9625 53.766 89.6693C52.6215 88.4077 51.6964 86.941 51.0849 85.3166H44.0293V99.3526C44.0293 100.819 44.6251 102.144 45.5816 103.106C46.538 104.068 47.855 104.667 49.3132 104.667H58.0151V92.7919ZM72.5025 104.652V88.7388C72.5025 88.455 72.3614 88.1711 72.1106 87.9661C71.8283 87.7138 71.405 87.556 70.9503 87.556H62.5306C62.076 87.556 61.6683 87.7138 61.3704 87.9661C61.1352 88.1711 60.9784 88.4392 60.9784 88.7388V104.652H72.4869H72.5025ZM60.9627 56.4404V71.4068C60.9627 71.6749 61.0882 71.9273 61.292 72.148L61.3547 72.1954C61.6526 72.4477 62.0603 72.6212 62.515 72.6212H70.966C71.4207 72.6212 71.8283 72.4635 72.1262 72.1954C72.3614 71.9903 72.5182 71.7065 72.5182 71.4068V56.4404H60.9627ZM45.7227 114.004C46.5537 114.004 47.2122 114.682 47.2122 115.502C47.2122 116.322 46.538 117 45.7227 117H37.0678C35.4372 117 33.9477 116.401 32.8501 115.423C31.7056 114.414 31 112.994 31 111.417V35.1026C31 33.5413 31.7212 32.1219 32.8501 31.1126C33.9477 30.1348 35.4372 29.5355 37.0835 29.5355H79.3229C79.7149 29.5355 80.0755 29.6932 80.3421 29.9456L102.026 49.1701C102.356 49.4697 102.528 49.8798 102.528 50.2898V111.417C102.528 112.994 101.807 114.414 100.678 115.423L100.584 115.502C99.5019 116.416 98.0438 116.984 96.4602 116.984H58.6266C57.7956 116.984 57.137 116.306 57.137 115.486C57.137 114.666 57.8112 113.988 58.6266 113.988H96.4602C97.3069 113.988 98.0908 113.704 98.6396 113.231L98.7023 113.168C99.2197 112.71 99.549 112.08 99.549 111.417V50.968L78.7585 32.532H37.0521C36.1584 32.532 35.3588 32.8474 34.7943 33.352C34.2769 33.8094 33.9477 34.4245 33.9477 35.1026V111.433C33.9477 112.095 34.2769 112.726 34.7943 113.183C35.3588 113.688 36.1584 114.004 37.0521 114.004H45.707H45.7227ZM52.2295 114.004C53.0605 114.004 53.719 114.682 53.719 115.502C53.719 116.322 53.0448 117 52.2295 117H52.0727C51.2417 117 50.5832 116.322 50.5832 115.502C50.5832 114.682 51.2574 114.004 52.0727 114.004H52.2295Z" fill="url(#paint0_linear_61_162)"/>
<defs>
<linearGradient id="paint0_linear_61_162" x1="33.1952" y1="24" x2="110.316" y2="29.4625" gradientUnits="userSpaceOnUse">
<stop stop-color="#FFA163"/>
<stop offset="1" stop-color="#FFC441"/>
</linearGradient>
</defs>
</svg>
