<svg width="140" height="140" viewBox="0 0 140 140" fill="none" xmlns="http://www.w3.org/2000/svg">
<g clip-path="url(#clip0_61_167)">
<path d="M72.2937 81.4806C72.2937 82.1316 71.9053 82.7255 71.2998 82.9882C70.6942 83.2395 69.9973 83.1138 69.5289 82.6456C69.0605 82.1887 68.9234 81.4921 69.1747 80.8867C69.4261 80.2814 70.0088 79.8817 70.6714 79.8817C71.5625 79.8817 72.2823 80.6012 72.2937 81.4921V81.4806ZM87.5004 62.2477C82.8504 58.1589 76.8637 55.909 70.6714 55.909C64.4791 55.909 58.4924 58.1589 53.8424 62.2477C53.374 62.6816 53.3283 63.4126 53.751 63.9037C54.1738 64.3948 54.905 64.4519 55.4077 64.0407C59.6235 60.3289 65.0617 58.2846 70.6714 58.2846C76.2811 58.2846 81.7193 60.3289 85.9351 64.0407C86.1751 64.2577 86.4835 64.372 86.8149 64.3491C87.1348 64.3263 87.4318 64.1892 87.6489 63.938C87.8545 63.6981 87.9574 63.3783 87.9345 63.0585C87.9117 62.7388 87.7517 62.4418 87.5004 62.2362V62.2477ZM70.6714 63.9037C66.3985 63.9151 62.2626 65.4798 59.0636 68.3122C58.5724 68.7462 58.5267 69.5 58.9608 69.9911C59.395 70.4822 60.149 70.5279 60.6403 70.0939C66.3756 65.0344 74.9786 65.0344 80.7025 70.0939C80.9196 70.288 81.1938 70.3908 81.4908 70.3908C81.8336 70.3908 82.1535 70.2424 82.382 69.9797C82.8161 69.4886 82.7704 68.7348 82.2792 68.3008C79.0802 65.4684 74.9558 63.9037 70.6714 63.8923V63.9037ZM70.6714 71.8756C68.3293 71.8641 66.0557 72.7093 64.2963 74.2626C63.7822 74.708 63.7365 75.4846 64.182 75.9986C64.6276 76.5125 65.4045 76.5582 65.9186 76.1128C68.6378 73.6458 72.7964 73.6458 75.5156 76.1128C75.7327 76.3069 76.0183 76.4097 76.3153 76.4097C76.6581 76.4097 76.978 76.2612 77.1951 75.9986C77.6292 75.5075 77.5835 74.7537 77.0922 74.3197C75.3328 72.7436 73.0478 71.8756 70.6828 71.8756H70.6714ZM106.009 58.3417V80.6583C106.968 80.8296 107.871 81.1609 108.716 81.652C112.784 83.9933 114.178 89.1898 111.824 93.2557C109.471 97.3216 104.284 98.715 100.216 96.3622C99.3937 95.8597 98.6625 95.2201 98.0456 94.4892L78.6917 105.67C79.0116 106.584 79.1716 107.532 79.183 108.503C79.183 113.197 75.3785 117 70.6828 117C65.9872 117 62.1827 113.197 62.1827 108.503C62.1827 107.543 62.354 106.584 62.6739 105.67L43.3201 94.4892C42.6917 95.2201 41.9491 95.8483 41.115 96.328C39.1614 97.5957 36.7736 98.0069 34.5114 97.4701C32.2493 96.9219 30.307 95.4828 29.1417 93.4727C27.9763 91.4512 27.6907 89.0528 28.3419 86.8257C28.9932 84.5872 30.547 82.7255 32.6149 81.6634C33.4489 81.1723 34.3629 80.8411 35.3112 80.6697V58.3531C32.8434 57.8962 30.7069 56.3773 29.4616 54.2073C28.2048 52.0144 27.9763 49.399 28.8561 47.0463C29.7244 44.6936 31.5866 42.8434 33.9402 41.9982C36.3051 41.1416 38.9215 41.3815 41.0808 42.6378C41.9148 43.1289 42.6688 43.7685 43.2972 44.5108L62.6625 33.3296C62.3426 32.416 62.1827 31.468 62.1712 30.4972C62.1712 25.8032 65.9757 22 70.6714 22C75.3671 22 79.1716 25.8032 79.1716 30.4972C79.1716 31.4566 79.0002 32.416 78.6803 33.3296L98.0342 44.5108C98.6625 43.7799 99.4052 43.1517 100.239 42.672C102.41 41.4157 105.026 41.1759 107.38 42.0325C109.745 42.8776 111.607 44.7278 112.475 47.0805C113.344 49.4333 113.127 52.0487 111.881 54.2301C110.636 56.4115 108.499 57.9191 106.032 58.3759L105.997 58.3417H106.009ZM98.5483 48.4282C97.7942 51.2492 99.131 54.2187 101.747 55.5093C104.364 56.8113 107.54 56.0689 109.322 53.7504C111.104 51.432 111.001 48.177 109.082 45.9841C107.151 43.7799 103.941 43.2545 101.405 44.7164C99.9993 45.5273 98.971 46.8635 98.5483 48.4282ZM64.5591 30.5087C64.5591 32.9756 66.0443 35.2141 68.3293 36.1621C70.6143 37.11 73.242 36.5846 75.0015 34.8372C76.7609 33.0898 77.275 30.4516 76.3268 28.1673C75.3785 25.8831 73.1506 24.3984 70.6714 24.3984C67.301 24.3984 64.559 27.1395 64.5476 30.5201L64.5591 30.5087ZM33.7802 55.2923C35.1855 56.1488 36.8764 56.3887 38.4759 55.9889C40.0639 55.5778 41.4349 54.5499 42.2461 53.1223C43.0687 51.6946 43.2858 50.0043 42.8402 48.4168C42.3946 46.8293 41.3321 45.493 39.8926 44.705C38.9672 44.1682 37.9161 43.8827 36.8421 43.8827C34.0773 43.8827 31.6438 45.7329 30.924 48.4054C30.2042 51.0779 31.3696 53.8989 33.7688 55.2923H33.7802ZM42.7488 90.5832C43.5029 87.7736 42.1661 84.8042 39.5498 83.5136C36.9335 82.223 33.7688 82.9539 31.9865 85.2724C30.2042 87.5795 30.307 90.8344 32.2264 93.0273C34.1458 95.2201 37.3448 95.7569 39.8811 94.295C41.3093 93.4955 42.3489 92.1593 42.7831 90.5832H42.7374H42.7488ZM76.7952 108.503C76.7952 106.036 75.3099 103.797 73.0249 102.849C70.74 101.901 68.1122 102.427 66.3528 104.174C64.5933 105.922 64.0792 108.56 65.0275 110.844C65.9757 113.128 68.2036 114.613 70.6828 114.613C74.0532 114.613 76.7952 111.872 76.8066 108.491L76.7952 108.503ZM96.7203 92.5133C96.5261 92.0908 96.3661 91.6568 96.2519 91.2113C95.6006 88.8015 96.0576 86.2318 97.4743 84.176C98.891 82.1202 101.142 80.8068 103.632 80.5555V58.4445C101.153 58.2046 98.9025 56.8798 97.4743 54.8354C96.0576 52.7911 95.6006 50.2213 96.2519 47.8115C96.3775 47.3661 96.5261 46.9207 96.7203 46.5095L77.5721 35.454C75.984 37.6925 73.4134 39.0173 70.6714 39.0173C67.9294 39.0173 65.3588 37.6925 63.7707 35.454L44.6225 46.5095C44.8167 46.9321 44.9767 47.3661 45.0909 47.8115C45.7422 50.2213 45.2852 52.7911 43.8685 54.8354C42.4518 56.8798 40.201 58.2046 37.7104 58.4445V80.5555C40.1896 80.7954 42.4403 82.1202 43.8685 84.176C45.2852 86.2318 45.7422 88.8015 45.0909 91.2113C44.9653 91.6568 44.8167 92.1022 44.6225 92.5133L63.7707 103.569C65.3588 101.33 67.9294 100.006 70.6714 100.006C73.4134 100.006 75.984 101.33 77.5721 103.569L96.7203 92.5133ZM107.563 83.7077C106.637 83.171 105.586 82.8854 104.512 82.8854C101.427 82.8854 98.8225 85.1468 98.4226 88.1962C98.0113 91.2456 99.9307 94.1237 102.901 94.9232C105.872 95.7226 108.979 94.2037 110.156 91.3598C111.344 88.516 110.225 85.2382 107.563 83.7077Z" fill="url(#paint0_linear_61_167)"/>
</g>
<defs>
<linearGradient id="paint0_linear_61_167" x1="30.4232" y1="22" x2="115.486" y2="28.5109" gradientUnits="userSpaceOnUse">
<stop stop-color="#FFA163"/>
<stop offset="1" stop-color="#FFC441"/>
</linearGradient>
<clipPath id="clip0_61_167">
<rect width="85" height="95" fill="white" transform="translate(28 22)"/>
</clipPath>
</defs>
</svg>
