<svg width="163" height="28" viewBox="0 0 163 28" fill="none" xmlns="http://www.w3.org/2000/svg">
<path d="M18.5675 0.630631L0 18.8769L8.642 27.3694C9.49764 28.2102 10.8667 28.2102 11.7223 27.3694L30.2898 9.12313L21.6478 0.630631C20.7921 -0.21021 19.4231 -0.21021 18.5675 0.630631Z" fill="#FFC441"/>
<path d="M9.66681e-07 0.966968L0 18.8769L10.2677 8.78679L1.71129 0.294295C1.11234 -0.294294 9.66681e-07 0.126127 9.66681e-07 0.966968Z" fill="#F27D3D"/>
<path d="M20.0221 19.2132L28.664 27.7057C29.263 28.2943 30.2898 27.8739 30.2898 27.033L30.2898 9.12313L20.0221 19.2132Z" fill="#92C15B"/>
<path d="M42.3544 24.006H37.6483V3.90991H42.4399L49.7129 12.3183L56.558 3.90991H61.0074V24.006H56.3013V11.0571L49.6273 18.7928H48.9428L42.2688 11.1411V24.006H42.3544Z" fill="#221F1F"/>
<path d="M79.147 11.3934L68.3659 24.006H64.2588V3.90991H68.9648V16.5225L79.7459 3.90991H83.853V24.006H79.147V11.3934Z" fill="#221F1F"/>
<path d="M90.2704 24.006H85.4788L94.9764 3.90991H99.169L108.667 24.006H103.618L101.736 19.8859H92.1528L90.2704 24.006ZM99.768 15.5135L96.9444 9.37538L94.1208 15.5135H99.768Z" fill="#221F1F"/>
<path d="M112.346 8.28229H105.33V3.90991H124.068V8.28229H117.052V23.9219H112.346V8.28229Z" fill="#221F1F"/>
<path d="M140.839 24.006H126.55V3.90991H140.497V8.28229H131.341V11.6456H139.555V16.018H131.341V19.5495H140.839V24.006Z" fill="#221F1F"/>
<path d="M163 24.006H158.208V8.28229H152.561L152.133 12.0661C151.877 14.6727 151.449 16.7748 150.935 18.4565C150.422 20.1381 149.738 21.3994 148.967 22.2402C148.197 23.0811 147.342 23.6697 146.401 23.9219C145.459 24.1742 144.347 24.1742 142.978 24.006L143.064 19.4655C143.491 19.5496 143.919 19.5496 144.261 19.4655C144.604 19.3814 144.946 19.1291 145.374 18.7087C145.802 18.2883 146.144 17.6997 146.401 16.8589C146.657 16.1021 146.999 14.9249 147.256 13.4114C147.513 11.8979 147.77 10.048 147.941 7.94595L148.283 3.90991H163V24.006Z" fill="#221F1F"/>
</svg>
